<svg width="332" height="124" viewBox="0 0 332 124" fill="none" xmlns="http://www.w3.org/2000/svg">
<path d="M49.756 117.106V118.517H44.3439V122.103H50.4699V123.514H42.8498V112.391H50.4699V113.802H44.3439V117.106H49.756ZM91.1245 112.391V123.514H90.56L83.3383 115.562V123.514H81.8442V112.391H82.4086L89.6303 120.443V112.391H91.1245ZM127.247 117.438H132.144V122.004C131.879 122.291 131.536 122.574 131.115 122.85C130.694 123.116 130.207 123.337 129.654 123.514C129.112 123.68 128.514 123.763 127.861 123.763C127.02 123.763 126.245 123.614 125.537 123.315C124.829 123.005 124.209 122.585 123.677 122.053C123.146 121.522 122.731 120.908 122.432 120.211C122.145 119.502 122.001 118.75 122.001 117.953C122.001 117.156 122.145 116.409 122.432 115.712C122.731 115.003 123.146 114.384 123.677 113.852C124.209 113.321 124.829 112.906 125.537 112.607C126.245 112.297 127.02 112.142 127.861 112.142C128.669 112.142 129.328 112.253 129.837 112.474C130.357 112.696 130.811 112.983 131.198 113.338V114.981C130.954 114.804 130.678 114.61 130.368 114.4C130.069 114.19 129.715 114.007 129.305 113.852C128.907 113.686 128.426 113.603 127.861 113.603C127.031 113.603 126.289 113.791 125.636 114.168C124.983 114.544 124.469 115.064 124.093 115.728C123.716 116.381 123.528 117.123 123.528 117.953C123.528 118.783 123.716 119.524 124.093 120.177C124.469 120.83 124.983 121.351 125.636 121.738C126.289 122.114 127.031 122.302 127.861 122.302C128.426 122.302 128.879 122.247 129.222 122.136C129.565 122.015 129.837 121.882 130.036 121.738C130.235 121.583 130.396 121.456 130.517 121.356L130.534 118.766H127.247V117.438ZM168.101 122.103V123.514H162.854V122.103H164.73V113.802H162.854V112.391H168.101V113.802H166.225V122.103H168.101ZM209.253 112.391V123.514H208.689L201.467 115.562V123.514H199.973V112.391H200.537L207.759 120.443V112.391H209.253ZM248.032 117.106V118.517H242.62V122.103H248.746V123.514H241.126V112.391H248.746V113.802H242.62V117.106H248.032ZM282.809 112.225C283.462 112.225 283.999 112.319 284.42 112.508C284.851 112.696 285.228 112.895 285.549 113.105V114.649C285.239 114.417 284.862 114.201 284.42 114.002C283.977 113.791 283.496 113.686 282.975 113.686C282.643 113.686 282.295 113.747 281.93 113.869C281.575 113.98 281.277 114.162 281.033 114.417C280.79 114.671 280.668 114.998 280.668 115.396C280.668 115.839 280.828 116.177 281.149 116.409C281.47 116.641 281.858 116.863 282.311 117.073L283.839 117.77C284.602 118.113 285.178 118.495 285.565 118.916C285.953 119.336 286.146 119.895 286.146 120.593C286.146 121.201 285.969 121.738 285.615 122.203C285.261 122.657 284.796 123.016 284.221 123.282C283.645 123.548 283.014 123.68 282.328 123.68C281.686 123.68 281.094 123.57 280.552 123.348C280.009 123.127 279.539 122.878 279.14 122.601V121.057C279.572 121.356 280.065 121.627 280.618 121.871C281.182 122.103 281.819 122.219 282.527 122.219C283.081 122.219 283.568 122.081 283.988 121.804C284.409 121.528 284.619 121.146 284.619 120.659C284.619 120.382 284.53 120.144 284.353 119.945C284.187 119.746 283.983 119.574 283.739 119.43C283.496 119.287 283.258 119.165 283.025 119.065L281.182 118.235C280.386 117.881 279.843 117.466 279.556 116.99C279.268 116.514 279.124 115.966 279.124 115.346C279.124 114.76 279.29 114.234 279.622 113.769C279.965 113.293 280.419 112.917 280.983 112.64C281.548 112.364 282.156 112.225 282.809 112.225Z" fill="#F0F8FF"/>
<path d="M105.663 1.02441L100.316 30.9805H8.69043L9.8623 24.3154C10.9365 17.8701 14.1592 12.377 19.5303 7.83594C24.9502 3.29492 30.8828 1.02441 37.3281 1.02441H105.663ZM93.3584 70.9707L88.0117 101H19.6768C13.9639 101 9.3252 99.1689 5.76074 95.5068C2.14746 91.7959 0.34082 87.2305 0.34082 81.8105C0.34082 81.127 0.365234 80.4434 0.414062 79.7598C0.462891 79.0273 0.536133 78.3193 0.633789 77.6357L7.15234 39.3301H37.1816L31.6885 70.9707H93.3584Z" fill="#CC0000"/>
<path d="M230.362 1.02441L225.016 30.9805H177.701L200.333 1.02441H230.362ZM164.005 30.9805H116.69L121.964 1.02441H151.993L164.005 30.9805ZM223.478 39.3301L212.638 101H182.682L190.006 59.1787L158.512 101L141.666 59.1787L134.342 101H104.532L115.152 39.3301H223.478Z" fill="#CC0000"/>
<path d="M331.313 1.02441L325.967 30.9805H242.69L247.964 1.02441H331.313ZM324.502 39.3301L320.474 62.6943H267.153L260.342 101H230.532L241.152 39.3301H324.502Z" fill="#CC0000"/>
</svg>
