<svg width="384" height="121" viewBox="0 0 384 121" fill="none" xmlns="http://www.w3.org/2000/svg">
<rect width="384" height="121" fill="#1E1E1E"/>
<rect width="1512" height="982" transform="translate(-952 -90)" fill="white"/>
<path d="M57.5492 114.273V115.649H51.2894V119.149H58.3749V120.526H49.5613V109.672H58.3749V111.049H51.2894V114.273H57.5492ZM105.397 109.672V120.526H104.744L96.3914 112.766V120.526H94.6632V109.672H95.316L103.669 117.529V109.672H105.397ZM147.177 114.597H152.841V119.052C152.535 119.332 152.138 119.608 151.651 119.878C151.164 120.137 150.601 120.353 149.961 120.526C149.334 120.688 148.643 120.769 147.887 120.769C146.915 120.769 146.018 120.623 145.199 120.331C144.381 120.029 143.663 119.619 143.048 119.1C142.434 118.582 141.954 117.983 141.608 117.302C141.276 116.611 141.11 115.877 141.11 115.099C141.11 114.321 141.276 113.592 141.608 112.912C141.954 112.22 142.434 111.616 143.048 111.097C143.663 110.579 144.381 110.174 145.199 109.882C146.018 109.58 146.915 109.429 147.887 109.429C148.822 109.429 149.584 109.537 150.173 109.753C150.774 109.969 151.3 110.249 151.747 110.596V112.199C151.465 112.026 151.146 111.837 150.787 111.632C150.441 111.427 150.032 111.249 149.558 111.097C149.097 110.935 148.541 110.854 147.887 110.854C146.927 110.854 146.069 111.038 145.314 111.406C144.559 111.773 143.964 112.28 143.529 112.928C143.093 113.565 142.876 114.289 142.876 115.099C142.876 115.909 143.093 116.632 143.529 117.269C143.964 117.907 144.559 118.415 145.314 118.793C146.069 119.159 146.927 119.343 147.887 119.343C148.541 119.343 149.065 119.289 149.462 119.181C149.858 119.063 150.173 118.933 150.403 118.793C150.633 118.641 150.82 118.517 150.959 118.42L150.979 115.892H147.177V114.597ZM194.43 119.149V120.526H188.361V119.149H190.531V111.049H188.361V109.672H194.43V111.049H192.26V119.149H194.43ZM242.028 109.672V120.526H241.375L233.022 112.766V120.526H231.294V109.672H231.946L240.3 117.529V109.672H242.028ZM286.88 114.273V115.649H280.621V119.149H287.706V120.526H278.893V109.672H287.706V111.049H280.621V114.273H286.88ZM327.104 109.51C327.86 109.51 328.481 109.601 328.968 109.786C329.466 109.969 329.902 110.163 330.274 110.368V111.875C329.915 111.649 329.479 111.438 328.968 111.244C328.455 111.038 327.899 110.935 327.296 110.935C326.912 110.935 326.51 110.995 326.088 111.114C325.677 111.222 325.333 111.4 325.05 111.649C324.769 111.897 324.628 112.216 324.628 112.604C324.628 113.036 324.813 113.366 325.184 113.592C325.556 113.819 326.005 114.035 326.528 114.24L328.296 114.921C329.178 115.255 329.845 115.628 330.292 116.039C330.741 116.449 330.964 116.994 330.964 117.675C330.964 118.269 330.759 118.793 330.35 119.246C329.941 119.689 329.403 120.04 328.738 120.299C328.071 120.559 327.342 120.688 326.548 120.688C325.806 120.688 325.121 120.58 324.494 120.364C323.866 120.148 323.322 119.905 322.861 119.635V118.128C323.361 118.42 323.931 118.684 324.57 118.922C325.223 119.149 325.959 119.262 326.778 119.262C327.419 119.262 327.982 119.127 328.468 118.857C328.955 118.588 329.198 118.215 329.198 117.74C329.198 117.469 329.095 117.237 328.89 117.043C328.698 116.849 328.462 116.681 328.18 116.54C327.899 116.401 327.624 116.282 327.354 116.184L325.223 115.374C324.302 115.029 323.674 114.624 323.342 114.159C323.009 113.695 322.842 113.16 322.842 112.555C322.842 111.983 323.034 111.47 323.418 111.016C323.815 110.552 324.34 110.185 324.992 109.915C325.646 109.645 326.349 109.51 327.104 109.51Z" fill="black"/>
<path d="M122.213 0.999512L116.028 30.2309H10.0517L11.4071 23.727C12.6495 17.4376 16.377 12.0774 22.5893 7.64625C28.8581 3.21509 35.7199 0.999512 43.1748 0.999512H122.213ZM107.981 69.2536L101.797 98.5563H22.7588C16.1511 98.5563 10.7859 96.7695 6.66311 93.196C2.48389 89.5749 0.394287 85.12 0.394287 79.8311C0.394287 79.1641 0.422525 78.4971 0.479001 77.83C0.535478 77.1152 0.620191 76.4244 0.733143 75.7573L8.27267 38.3785H43.0053L36.6518 69.2536H107.981Z" fill="#CC0000"/>
<path d="M266.443 0.999512L260.26 30.2309H205.534L231.711 0.999512H266.443ZM189.693 30.2309H134.967L141.067 0.999512H175.799L189.693 30.2309ZM258.481 38.3785L245.943 98.5563H211.295L219.766 57.7468L183.339 98.5563L163.855 57.7468L155.384 98.5563H120.905L133.188 38.3785H258.481Z" fill="#CC0000"/>
<path d="M383.205 0.999512L377.022 30.2309H280.702L286.802 0.999512H383.205ZM375.328 38.3785L370.669 61.1774H308.996L301.118 98.5563H266.639L278.923 38.3785H375.328Z" fill="#CC0000"/>
</svg>
