<svg width="60" height="12" viewBox="0 0 380 67" fill="#fff" xmlns="http://www.w3.org/2000/svg">
<path d="M70.8105 0.349609L67.2461 20.3203H6.16211L6.94336 15.877C7.65951 11.5801 9.80794 7.91797 13.3887 4.89062C17.002 1.86328 20.957 0.349609 25.2539 0.349609H70.8105ZM62.6074 46.9805L59.043 67H13.4863C9.67773 67 6.58529 65.7793 4.20898 63.3379C1.80013 60.8639 0.595703 57.8203 0.595703 54.207C0.595703 53.7513 0.611979 53.2956 0.644531 52.8398C0.677083 52.3516 0.725911 51.8796 0.791016 51.4238L5.13672 25.8867H25.1562L21.4941 46.9805H62.6074ZM148.643 0.349609L145.078 20.3203H113.535L128.623 0.349609H148.643ZM104.404 20.3203H72.8613L76.377 0.349609H96.3965L104.404 20.3203ZM144.053 25.8867L136.826 67H116.855L121.738 39.1191L100.742 67L89.5117 39.1191L84.6289 67H64.7559L71.8359 25.8867H144.053ZM209.775 0.349609L206.211 20.3203H150.693L154.209 0.349609H209.775ZM205.234 25.8867L202.549 41.4629H167.002L162.461 67H142.588L149.668 25.8867H205.234ZM312.803 13.2402C312.803 13.696 312.77 14.1354 312.705 14.5586C312.673 14.9818 312.624 15.4212 312.559 15.877L311.777 20.3203H250.693L254.209 0.349609H299.766C303.574 0.349609 306.699 1.57031 309.141 4.01172C311.582 6.45312 312.803 9.5293 312.803 13.2402ZM310.801 25.8867C310.41 28.1654 308.522 30.7533 305.137 33.6504C307.188 36.1895 308.213 38.4193 308.213 40.3398C308.213 40.5026 308.197 40.6816 308.164 40.877C308.164 41.0723 308.148 41.2676 308.115 41.4629L306.357 51.4238C305.641 55.6882 303.46 59.3665 299.814 62.459C296.234 65.4863 292.295 67 287.998 67H242.588L246.006 46.9805H287.119L288.145 41.4629H269.248L271.885 25.8867H310.801ZM379.502 13.2402C379.502 13.696 379.469 14.1354 379.404 14.5586C379.372 14.9818 379.323 15.4212 379.258 15.877L378.477 20.3203H317.393L320.908 0.349609H366.465C370.273 0.349609 373.398 1.57031 375.84 4.01172C378.281 6.45312 379.502 9.5293 379.502 13.2402ZM377.5 25.8867L373.057 51.4238C372.34 55.6882 370.16 59.3665 366.514 62.459C362.933 65.4863 358.994 67 354.697 67H309.287L316.367 25.8867H336.387L332.725 46.9805H353.818L357.48 25.8867H377.5Z" fill="white"/>
</svg>
